<svg width="128" height="217" viewBox="0 0 128 217" fill="none" xmlns="http://www.w3.org/2000/svg">
<path id="Union" fill-rule="evenodd" clip-rule="evenodd" d="M86.9993 23C86.9993 35.7025 76.7018 46 63.9993 46C51.2967 46 40.9993 35.7025 40.9993 23C40.9993 10.2975 51.2967 0 63.9993 0C76.7018 0 86.9993 10.2975 86.9993 23ZM98.9112 58.5H99.0468L102.101 65.9453L126.101 124.445C128.617 130.577 125.685 137.587 119.554 140.102C113.422 142.617 106.413 139.686 103.897 133.555L92.9993 106.991V133.704L96.4847 204.409C96.811 211.029 91.7095 216.659 85.0901 216.985C78.4707 217.312 72.8401 212.21 72.5138 205.591L69.2065 138.5H58.7673L55.4847 205.091C55.1584 211.71 49.5278 216.812 42.9084 216.485C36.289 216.159 31.1875 210.529 31.5138 203.909L34.9993 133.204V106.991L24.1013 133.555C21.5858 139.686 14.5761 142.617 8.44457 140.102C2.3131 137.587 -0.618252 130.577 1.89723 124.445L25.8972 65.9453L27.6302 61.7213C28.4896 55.9374 33.4762 51.5 39.4993 51.5H87.9993C92.8422 51.5 97.0152 54.3689 98.9112 58.5Z" fill="#222222"/>
</svg>
